<?xml version="1.0" standalone="no"?>
<!DOCTYPE svg PUBLIC "-//W3C//DTD SVG 20010904//EN"
 "http://www.w3.org/TR/2001/REC-SVG-20010904/DTD/svg10.dtd">
<svg version="1.0" xmlns="http://www.w3.org/2000/svg"
 width="48.000000pt" height="48.000000pt" viewBox="0 0 48.000000 48.000000"
 preserveAspectRatio="xMidYMid meet">

<g transform="translate(0.000000,48.000000) scale(0.100000,-0.100000)"
fill="#000000" stroke="none">
<path d="M145 456 c-191 -90 -191 -342 0 -432 65 -31 125 -31 190 0 125 59
177 193 121 311 -59 125 -193 177 -311 121z m182 -41 c28 -14 59 -38 68 -53
16 -24 14 -24 -15 6 -18 17 -36 32 -41 32 -4 0 -10 -42 -11 -92 -3 -92 -3 -93
-28 -93 -25 0 -25 0 -28 107 l-3 107 -37 4 -37 4 41 1 c26 1 58 -7 91 -23z
m-187 -7 c0 -2 -17 -19 -37 -38 -21 -19 -31 -26 -23 -15 18 25 60 62 60 53z
m-93 -190 c-2 -13 -4 -3 -4 22 0 25 2 35 4 23 2 -13 2 -33 0 -45z m141 -55 c1
-62 0 -113 -4 -113 -18 0 -86 47 -100 69 -15 23 -13 23 12 -4 l29 -30 3 98 3
98 27 -3 27 -3 3 -112z m249 55 c-2 -13 -4 -3 -4 22 0 25 2 35 4 23 2 -13 2
-33 0 -45z m-41 -99 c-8 -11 -25 -28 -38 -37 -14 -10 -10 -2 12 21 40 42 48
47 26 16z m-133 -76 c-13 -2 -33 -2 -45 0 -13 2 -3 4 22 4 25 0 35 -2 23 -4z"/>
</g>
</svg>
